:SAMPLES-PER-SECOND 30
:FULLY-SPECIFIED
:DEGREES
319
root  -5.09614 40.8812 0.884071 173.938 -73.1966 -175.39
RightUpLeg  5.26238 -0.932 -1.05552
RightLeg  -1.87887 -7.10371 0.137143
RightFoot  -0.161209 -0.336595 3.42483
RightToes  -3.10678e-008 1.75238e-005 3.56266e-009
Spine  3.84149 -12.5849 -14.6127
Spine1  -5.14797 -16.0704 25.374
HEad  -1.87647 -30.2677 3.72934
LeftShoulder1  2.20548 -3.85632 -23.7316
LeftArm  11.3168 -20.2669 -64.4464
LeftForeArm  45.853 -72.7766 -32.6701
LeftHand  -0.528584 -4.6986 6.37342
RightShoulder  1.2031 0.812643 21.6694
RightArm  1.02268 -32.492 42.3065
RightForeArm  47.9632 75.8967 44.2613
RightHand  -0.308618 8.21604 -3.00336
LeftUpLeg  10.1175 2.62844 1.1868
LeftLeg  -4.77913 32.5553 -3.68073
LeftFoot  -2.65319 0.128996 -1.50821
LeftToes  4.7643e-008 1.47522e-008 1.32869e-009
320
root  -5.05418 40.8912 0.858109 174.241 -73.0555 -175.393
RightUpLeg  4.87444 -0.829158 -0.976287
RightLeg  -1.9146 -7.17105 0.184287
RightFoot  -0.047584 -0.337867 3.42514
RightToes  -3.10678e-008 1.75238e-005 3.56266e-009
Spine  3.67861 -12.5872 -14.7491
Spine1  -4.81096 -16.1063 25.1439
HEad  -1.99714 -31.6097 4.08324
LeftShoulder1  2.23316 -3.99928 -23.5148
LeftArm  10.8761 -19.9057 -63.9794
LeftForeArm  45.769 -72.8308 -32.8419
LeftHand  -0.518756 -4.70586 6.25661
RightShoulder  1.18783 0.741522 21.7865
RightArm  1.15012 -31.6263 41.868
RightForeArm  47.959 75.8495 44.0072
RightHand  -0.320313 8.45253 -3.06281
LeftUpLeg  9.71688 2.60712 1.2363
LeftLeg  -4.68325 32.5077 -3.59358
LeftFoot  -2.44873 0.127027 -1.49469
LeftToes  4.7643e-008 1.47522e-008 1.32869e-009
321
root  -4.97182 40.9066 0.807785 174.787 -73.593 -175.594
RightUpLeg  4.49623 -0.873154 -1.00011
RightLeg  -2.02811 -7.76523 0.348934
RightFoot  0.0181575 -0.336901 3.38665
RightToes  -3.10678e-008 1.75238e-005 3.56266e-009
Spine  3.47121 -12.5038 -15.0488
Spine1  -4.44787 -16.0481 24.9051
HEad  -1.80984 -32.5402 4.20848
LeftShoulder1  2.09135 -3.58922 -23.2235
LeftArm  10.589 -19.8898 -64.0039
LeftForeArm  45.8273 -72.785 -32.7005
LeftHand  -0.53767 -4.98719 6.31342
RightShoulder  1.2408 0.924412 21.8227
RightArm  0.872821 -30.6976 41.5925
RightForeArm  47.3801 75.6738 43.2606
RightHand  -0.380219 8.15274 -3.62699
LeftUpLeg  9.12953 2.48797 1.23893
LeftLeg  -4.57999 31.9692 -3.44597
LeftFoot  -2.14163 0.121021 -1.41183
LeftToes  4.7643e-008 1.47522e-008 1.32869e-009
322
root  -4.83303 40.9264 0.734373 175.076 -75.1947 -175.643
RightUpLeg  4.36977 -0.944663 -0.976518
RightLeg  -2.30897 -9.34556 0.576318
RightFoot  0.157839 -0.307767 3.06696
RightToes  -3.10678e-008 1.75238e-005 3.56266e-009
Spine  3.44406 -12.1016 -15.2869
Spine1  -4.35608 -15.5829 24.4285
HEad  -1.43717 -33.5495 4.44731
LeftShoulder1  2.07664 -3.61719 -22.8802
LeftArm  10.1704 -20.0135 -63.9854
LeftForeArm  45.5274 -72.786 -32.7724
LeftHand  -0.502778 -4.76564 6.0417
RightShoulder  1.27082 1.00175 22.0201
RightArm  0.769828 -30.2407 40.804
RightForeArm  47.0764 75.8184 44.1518
RightHand  -0.406435 8.11045 -3.85829
LeftUpLeg  8.36402 2.3723 1.3535
LeftLeg  -4.22408 30.474 -3.14002
LeftFoot  -1.81926 0.113227 -1.29479
LeftToes  4.7643e-008 1.47522e-008 1.32869e-009
323
root  -4.6838 40.9434 0.623875 174.941 -77.5806 -175.271
RightUpLeg  4.47687 -0.936864 -0.808667
RightLeg  -2.8961 -11.7318 0.895756
RightFoot  0.347016 -0.27078 2.66668
RightToes  -3.10678e-008 1.75238e-005 3.56266e-009
Spine  3.49769 -11.5807 -15.3352
Spine1  -4.58301 -14.9312 23.916
HEad  -0.224377 -33.3733 2.84883
LeftShoulder1  2.00267 -3.39514 -22.7389
LeftArm  9.78993 -19.971 -63.491
LeftForeArm  46.2728 -72.9629 -33.1005
LeftHand  -0.504672 -4.66042 6.12
RightShoulder  1.26925 1.03458 21.7637
RightArm  0.514102 -29.9631 40.4102
RightForeArm  47.3099 75.8329 44.1483
RightHand  -0.207149 8.3252 -2.13116
LeftUpLeg  7.48788 2.34969 1.65913
LeftLeg  -3.76618 28.1219 -2.7779
LeftFoot  -1.50152 0.115524 -1.32844
LeftToes  4.7643e-008 1.47522e-008 1.32869e-009
324
root  -4.54362 40.9602 0.477225 175.79 -80.913 -175.995
RightUpLeg  4.68529 -1.30104 -0.972711
RightLeg  -3.26185 -14.5963 1.32053
RightFoot  0.254431 -0.270561 2.6795
RightToes  -3.10678e-008 1.75238e-005 3.56266e-009
Spine  2.61032 -11.2972 -15.2369
Spine1  -3.61677 -14.5428 22.5999
HEad  0.214534 -32.6441 2.57262
LeftShoulder1  1.95149 -3.28679 -22.4275
LeftArm  8.83807 -20.1161 -62.5742
LeftForeArm  46.0646 -73.0564 -33.4197
LeftHand  -0.529097 -4.59662 6.43892
RightShoulder  1.29796 1.13009 21.8069
RightArm  0.310868 -29.2048 39.9865
RightForeArm  46.434 75.6888 43.676
RightHand  -0.252862 8.33788 -2.51739
LeftUpLeg  6.88056 2.22741 1.78976
LeftLeg  -3.93982 24.9767 -2.79444
LeftFoot  -0.954119 0.096272 -1.02117
LeftToes  4.7643e-008 1.47522e-008 1.32869e-009
325
root  -4.38202 40.9691 0.326115 176.517 -84.4781 -176.644
RightUpLeg  4.82445 -1.58335 -1.06581
RightLeg  -3.44188 -17.7903 1.68754
RightFoot  0.0465326 -0.243987 2.44981
RightToes  -3.10678e-008 1.75238e-005 3.56266e-009
Spine  2.01284 -10.4209 -15.0858
Spine1  -3.06424 -13.5294 21.5201
HEad  1.05334 -31.3507 1.20573
LeftShoulder1  1.84281 -3.01702 -21.9223
LeftArm  7.90599 -20.3328 -62.0197
LeftForeArm  45.9691 -73.0444 -33.4074
LeftHand  -0.523786 -4.4571 6.45995
RightShoulder  1.31405 1.16808 21.9316
RightArm  0.184922 -28.3724 39.3618
RightForeArm  46.1192 75.5859 43.2399
RightHand  -0.40586 7.9728 -3.89002
LeftUpLeg  6.03037 1.97373 1.79996
LeftLeg  -3.66075 21.7377 -2.46499
LeftFoot  -0.496255 0.0907662 -0.921771
LeftToes  4.7643e-008 1.47522e-008 1.32869e-009
326
root  -4.23506 40.9758 0.154971 173.643 -89.1349 -173.816
RightUpLeg  5.57591 -1.9819 -0.99013
RightLeg  -4.3524 -21.8797 2.58331
RightFoot  0.0125959 -0.228253 2.29529
RightToes  -3.10678e-008 1.75238e-005 3.56266e-009
Spine  1.89761 -9.57275 -14.7712
Spine1  -3.24633 -12.5093 20.8854
HEad  2.46126 -29.4291 0.393066
LeftShoulder1  1.8026 -2.91063 -21.7529
LeftArm  6.82177 -20.2492 -61.0915
LeftForeArm  45.8755 -73.0644 -33.4883
LeftHand  -0.55831 -4.43009 6.88153
RightShoulder  1.33892 1.28752 21.7319
RightArm  -0.0664449 -28.0917 38.8078
RightForeArm  46.348 75.6315 43.401
RightHand  -0.29835 8.05467 -2.94508
LeftUpLeg  4.89212 1.87102 2.11271
LeftLeg  -2.71865 17.2615 -1.88629
LeftFoot  -0.25086 0.0985225 -1.02291
LeftToes  4.7643e-008 1.47522e-008 1.32869e-009
327
root  -4.08484 40.9677 -0.0338104 -5.01825 -86.0498 4.87897
RightUpLeg  5.66462 -2.63176 -1.22702
RightLeg  -4.04845 -25.755 3.08592
RightFoot  -0.513903 -0.214209 2.22226
RightToes  -3.10678e-008 1.75238e-005 3.56266e-009
Spine  0.923384 -8.66474 -14.425
Spine1  -2.36054 -11.464 19.8891
HEad  3.50621 -27.4138 0.254898
LeftShoulder1  1.81974 -2.94452 -21.8778
LeftArm  5.44651 -20.3343 -59.6131
LeftForeArm  45.9641 -73.1629 -33.7584
LeftHand  -0.593229 -4.51195 7.23964
RightShoulder  1.33264 1.30049 21.512
RightArm  -0.422524 -27.1629 38.8285
RightForeArm  46.3217 75.5472 42.9697
RightHand  -0.306603 7.62267 -3.09371
LeftUpLeg  3.71638 1.5218 2.04259
LeftLeg  -2.0976 12.8946 -1.54574
LeftFoot  0.125538 0.102747 -1.06376
LeftToes  4.7643e-008 1.47522e-008 1.32869e-009
328
root  -3.97373 40.9473 -0.253101 -3.82495 -80.7863 3.59766
RightUpLeg  6.24259 -2.9941 -1.08352
RightLeg  -4.52009 -30.5951 3.82473
RightFoot  -0.919154 -0.212506 2.26129
RightToes  -3.10678e-008 1.75238e-005 3.56266e-009
Spine  0.404193 -7.55342 -13.9855
Spine1  -1.98498 -10.1885 18.9679
HEad  4.30313 -25.2196 -0.50643
LeftShoulder1  1.75816 -2.78926 -21.5774
LeftArm  4.55138 -20.484 -58.7275
LeftForeArm  45.7952 -73.1725 -33.8281
LeftHand  -0.565093 -4.44713 6.95224
RightShoulder  1.37115 1.4541 21.4187
RightArm  -0.574967 -26.5161 38.4333
RightForeArm  46.1276 75.6346 43.4961
RightHand  -0.387956 7.78557 -3.78188
LeftUpLeg  2.53019 1.26402 2.1022
LeftLeg  -1.2637 7.94919 -1.15953
LeftFoot  0.423627 0.104682 -1.04034
LeftToes  4.7643e-008 1.47522e-008 1.32869e-009
329
root  -3.89068 40.9162 -0.456086 -4.36304 -75.2681 4.11462
RightUpLeg  6.5667 -3.28394 -0.992625
RightLeg  -4.59318 -35.7337 4.15764
RightFoot  -1.40145 -0.221005 2.42995
RightToes  -3.10678e-008 1.75238e-005 3.56266e-009
Spine  -0.0643429 -6.39825 -13.4183
Spine1  -1.9404 -8.78206 17.943
HEad  5.39186 -23.234 -0.793338
LeftShoulder1  1.70631 -2.65779 -21.3148
LeftArm  3.60466 -20.2289 -58.0831
LeftForeArm  45.8791 -73.1266 -33.6732
LeftHand  -0.537592 -4.48174 6.60688
RightShoulder  1.32972 1.35073 21.1385
RightArm  -0.827673 -25.759 38.4127
RightForeArm  45.7045 75.486 42.8684
RightHand  -0.36953 8.02258 -3.56481
LeftUpLeg  1.37332 0.670267 1.77538
LeftLeg  -0.695727 3.1939 -0.826321
LeftFoot  0.818211 0.129107 -1.25826
LeftToes  4.7643e-008 1.47522e-008 1.32869e-009
330
root  -3.83768 40.8878 -0.667307 -4.53491 -69.5971 4.07709
RightUpLeg  7.23972 -3.78688 -0.958062
RightLeg  -5.02937 -40.6785 4.95621
RightFoot  -1.8051 -0.21501 2.4277
RightToes  -3.10678e-008 1.75238e-005 3.56266e-009
Spine  -0.527321 -5.18371 -12.8165
Spine1  -1.48457 -7.40728 16.9654
HEad  6.115 -22.0148 -0.936245
LeftShoulder1  1.63677 -2.44854 -21.1066
LeftArm  2.7465 -20.0636 -57.3725
LeftForeArm  46.237 -73.3567 -34.2813
LeftHand  -0.516352 -4.29226 6.4706
RightShoulder  1.32028 1.35368 20.9117
RightArm  -0.852355 -24.8488 38.1777
RightForeArm  46.0073 75.6813 43.7855
RightHand  -0.356792 7.89327 -3.4812
LeftUpLeg  0.458136 0.101951 1.45357
LeftLeg  -0.191224 -1.78448 -0.530348
LeftFoot  1.16623 0.196458 -1.85663
LeftToes  4.7643e-008 1.47522e-008 1.32869e-009
331
root  -3.78952 40.8516 -0.863269 -4.38123 -63.8044 3.82788
RightUpLeg  7.77681 -4.15456 -0.759726
RightLeg  -5.73098 -45.9562 5.92545
RightFoot  -2.13541 -0.20859 2.41569
RightToes  -3.10678e-008 1.75238e-005 3.56266e-009
Spine  -1.09251 -3.97905 -11.8697
Spine1  -0.987239 -5.99434 15.6062
HEad  6.90235 -20.918 -1.45889
LeftShoulder1  1.57742 -2.26281 -20.9513
LeftArm  1.91095 -20.5923 -57.1515
LeftForeArm  45.4569 -73.1414 -33.8152
LeftHand  -0.498383 -3.87045 6.51461
RightShoulder  1.32784 1.38659 20.882
RightArm  -1.133 -23.6736 38.0181
RightForeArm  46.2223 75.6695 43.6475
RightHand  -0.310106 7.7515 -3.10729
LeftUpLeg  -0.665498 -0.465639 1.1176
LeftLeg  0.44134 -6.90021 -0.326138
LeftFoot  1.45244 0.279413 -2.57301
LeftToes  4.7643e-008 1.47522e-008 1.32869e-009
332
root  -3.76781 40.8004 -1.05064 -4.35791 -58.2956 3.7887
RightUpLeg  8.02577 -4.39504 -0.473693
RightLeg  -6.21188 -51.2256 6.58604
RightFoot  -2.52257 -0.220358 2.65253
RightToes  -3.10678e-008 1.75238e-005 3.56266e-009
Spine  -0.93191 -2.66683 -10.7074
Spine1  -1.63121 -4.34707 14.0276
HEad  7.66863 -19.7304 -1.53891
LeftShoulder1  1.51092 -2.07656 -20.6522
LeftArm  1.34812 -20.3638 -56.5854
LeftForeArm  45.696 -73.2283 -34.0189
LeftHand  -0.503346 -3.82445 6.60852
RightShoulder  1.40962 1.63816 21.1456
RightArm  -1.42094 -22.9509 37.7805
RightForeArm  46.3258 75.7825 44.2252
RightHand  -0.385914 7.41809 -3.85063
LeftUpLeg  -1.72068 -1.18174 0.612297
LeftLeg  0.973081 -11.4895 -0.144762
LeftFoot  1.73524 0.330996 -2.97885
LeftToes  4.7643e-008 1.47522e-008 1.32869e-009
333
root  -3.76158 40.7686 -1.22195 -4.58398 -53.5358 3.72601
RightUpLeg  8.59784 -4.66172 -0.255106
RightLeg  -6.92402 -55.5043 7.48254
RightFoot  -2.81956 -0.219135 2.68041
RightToes  -3.10678e-008 1.75238e-005 3.56266e-009
Spine  -0.761058 -1.15673 -9.19242
Spine1  -1.84532 -2.52336 11.9397
HEad  7.74586 -18.939 -1.16884
LeftShoulder1  1.45125 -1.9026 -20.4039
LeftArm  0.200243 -20.175 -56.0421
LeftForeArm  46.5788 -73.4246 -34.4072
LeftHand  -0.466871 -4.15402 5.95039
RightShoulder  1.5726 2.1642 21.5037
RightArm  -1.85489 -22.0875 37.4951
RightForeArm  47.0717 75.9003 44.6162
RightHand  -0.374906 7.76542 -3.6664
LeftUpLeg  -2.19649 -1.71792 0.202745
LeftLeg  1.20587 -15.4056 0.00978415
LeftFoot  1.82083 0.489376 -4.33853
LeftToes  4.7643e-008 1.47522e-008 1.32869e-009
